<?xml version="1.0" encoding="UTF-8"?>
<svg width="20px" height="20px" viewBox="0 0 20 20" version="1.1" xmlns="http://www.w3.org/2000/svg" xmlns:xlink="http://www.w3.org/1999/xlink">
    <!-- Generator: Sketch 45.1 (43504) - http://www.bohemiancoding.com/sketch -->
    <title>link_round [#1110]@3x</title>
    <desc>Created with Sketch.</desc>
    <defs></defs>
    <g id="Icons" stroke="none" stroke-width="1" fill="none" fill-rule="evenodd">
        <g id="Network-&amp;-Web" transform="translate(-340.000000, -20.000000)" fill="#FFFFFF">
            <g id="icons" transform="translate(20.000000, 20.000000)">
                <path d="M338.238743,1.76127893 C335.890401,-0.587092975 332.082738,-0.587092975 329.734396,1.76127893 L327.165552,4.33015523 L328.582776,5.74739717 L331.15162,3.17852087 C332.718184,1.61193731 335.253953,1.61193731 336.821519,3.17852087 C338.384074,4.74209755 338.384074,7.28491424 336.821519,8.84849092 L334.252675,11.4173672 L335.669899,12.8346092 L338.238743,10.2657329 C340.587086,7.91736096 340.587086,4.10965083 338.238743,1.76127893 L338.238743,1.76127893 Z M328.84838,16.8207274 C328.091659,17.5784607 327.084367,17.9954145 326.013932,17.9954145 C324.943496,17.9954145 323.936205,17.5784607 323.179483,16.8207274 C321.615926,15.258153 321.615926,12.714334 323.179483,11.1517597 L325.748327,8.58288335 L324.330101,7.16463911 L321.761257,9.73351542 C319.412914,12.0818873 319.412914,15.8895975 321.761257,18.2389716 C322.935929,19.4126565 324.474429,20 326.013932,20 C327.553434,20 329.091934,19.4126565 330.266607,18.2389716 L332.835451,15.6700953 L331.417224,14.2518511 L328.84838,16.8207274 Z M332.263149,6.31970633 L333.680373,7.73694827 L327.721817,13.6955786 L326.304593,12.2783367 L332.263149,6.31970633 Z" id="link_round-[#1110]"></path>
            </g>
        </g>
    </g>
</svg>