<?xml version="1.0" encoding="utf-8"?>
<!-- Generator: Adobe Illustrator 21.0.0, SVG Export Plug-In . SVG Version: 6.00 Build 0)  -->
<!DOCTYPE svg PUBLIC "-//W3C//DTD SVG 1.1//EN" "http://www.w3.org/Graphics/SVG/1.1/DTD/svg11.dtd">
<svg version="1.1" id="Layer_1" xmlns="http://www.w3.org/2000/svg" xmlns:xlink="http://www.w3.org/1999/xlink" x="0px" y="0px"
	 viewBox="0 0 784 47.2" style="enable-background:new 0 0 784 47.2;" xml:space="preserve">
<style type="text/css">
	.st0{fill:#A90533;}
	.st1{fill:#FFFFFF;}
	.st2{fill:#68737A;}
	.st3{enable-background:new    ;}
</style>
<g>
	<path class="st0" d="M4.1,7.2v0.7C4.5,8,4.7,8.1,4.7,8.8v15.5c0,8.6,7,10.9,14.4,16.7c7.4-5.8,14.4-8.1,14.4-16.7V8.6
		c0.1-0.5,0.2-0.6,0.6-0.7V7.2H4.1z"/>
	<g>
		<path class="st1" d="M22.1,32.4c0,0,1.2-0.5,1.9-2.5c0.6,1.2,0.4,2.4,0.4,2.4C23.8,32.5,22.1,32.4,22.1,32.4z"/>
		<path class="st1" d="M28.5,21.1c0,0,0.7,4-1.9,4.1c-2.5,0.1-3.7-3.6-3.7-3.6s0.6,7.3,4.1,6.8C31,27.9,28.5,21.1,28.5,21.1z"/>
		<path class="st1" d="M9.5,31.4L9.5,31.4c2.9-0.7,5.2-4.1,5.8-5.4l0.4-0.9L16,26c0,0.1,0.3,1.1,0.3,2.4c0,0.1,0,0.3,0,0.5
			c1,0,1.7-0.2,2.2-0.6c0.6-0.7,0.8-1.9,0.6-3.8c-0.1-0.9-0.5-2.4-0.8-3.7c-0.2-0.7-0.3-1.3-0.4-1.7c-0.6-2.8,0.1-4.6,0.8-5.5
			c0.1-0.2,0.2-0.3,0.3-0.4c-2,0.7-3.7,1.7-5.5,3.5l1.2,1.4l0.5-0.5c0.5,1.8,0.1,3.4,0.1,3.4c-0.6-1-1.4-1.8-1.4-1.8l0.3-0.6
			l-1.1-1.3L13,17.2c-1.4,1.9-1.8,3.4-1.8,3.4l1,0.9l0.6,0.5l0.2-0.5c1,1.9,0.1,3.8,0.1,3.8c-0.2-0.7-0.9-1.6-0.9-1.6l0.3-0.9
			l-1.4-1.3c-1.5,4.7-3.5,6.2-3.5,6.2s2.2-0.4,3.4-0.8C11,26.7,11,29.2,9.5,31.4z"/>
		<path class="st1" d="M31.3,14.6l-3.5,0.1c0,0.4-0.1,0.8-0.2,1.2c0.3,1.4,0.1,2.2,0.1,2.2c-0.6-1.3-1-1.7-1-1.7
			c-3.2-1.4-4.9,1.8-4.8,3.8c0.2,1.7,0.8,3.9,1.2,7.4c0.4,3-1.1,4.2-2.8,4.5h-0.1l0,0c-0.3,0-0.6,0.1-0.9,0l0,0h-0.1
			c-0.1,0-0.3,0-0.4,0c-1.3-0.2-4.3-0.7-7.4-0.8c1.8-1.1,3.2-2.9,4-4.2c0,0.4,0.1,0.8,0.1,1.3c0,0.2,0,0.5,0,0.8v0.4h0.4
			c1.4,0.1,2.4-0.1,3.1-0.8c0.8-0.8,1.1-2.2,0.8-4.4c-0.1-1-0.5-2.4-0.8-3.7c-0.2-0.7-0.3-1.3-0.4-1.7c-0.5-2.6,0.1-4.1,0.7-5
			c0.5-0.7,1.1-1.2,1.8-1.4l0,0L22.3,9h0.4l-0.8,3.5c0.2,0,0.4-0.1,0.6-0.1l1-3.2h0.4l-0.7,3.1c1.1-0.1,2.2-0.2,3.5-0.3
			c0.2,0.1,0.4,0.3,0.6,0.6l3.3-1l0.1,0.4l-3.2,1.2c0,0.1,0.1,0.1,0.1,0.2l3.5-0.4l0.1,0.4l-3.4,0.7c0,0.1,0,0.1,0,0.2l3.5,0.1
			L31.3,14.6z M21.3,16.2c0.7-0.5,1.9-0.9,3-0.8c0.3,0,0.5-0.1,0.2-0.2c-0.8-0.4-2.8-0.3-3.5,0.2c-1.1,0.7-0.9,2.1-0.9,2.1
			C20.4,17.1,20.8,16.5,21.3,16.2z"/>
	</g>
	<path class="st2" d="M24.5,38.5l-5.4,3.8l-5.4-3.8c-3.8-2.6-7.1-4.9-8.8-8.3c1.4,6.4,7.7,8.8,14.2,13.9C25.7,39,32,36.6,33.4,30.2
		C31.7,33.6,28.4,35.9,24.5,38.5z"/>
</g>
<rect x="46.6" class="st2" width="0.7" height="43.9"/>
<g class="st3">
	<path class="st2" d="M66.3,31.1V9.7h-7.6V7.3h18.6v2.4h-7.6v21.4H66.3z"/>
	<path class="st2" d="M81.9,16.2c1.6-1.7,4-2.5,5.8-2.5c3.9,0,6,2.2,6,6.5v10.9h-3.1V20.8c0-3.2-1.4-4.9-4.1-4.9
		c-2.4,0-4.6,1.7-4.6,4.9v10.2h-3.1v-25h3V16.2z"/>
	<path class="st2" d="M99.8,22.8c0,3.4,2.4,6.5,5.7,6.5c1.6,0,3.5-0.6,4.7-1.5l0.9,1.7c-1.8,1.3-3.9,2-5.6,2c-5.3,0-8.8-3.3-8.8-9.2
		c0-5.9,4.2-8.6,8.1-8.6c5.2,0,6.9,4.7,6.6,9.1H99.8z M108.5,20.8c0-2.7-1.1-4.9-3.8-4.9c-3.3,0-4.6,2.7-4.7,4.9H108.5z"/>
	<path class="st2" d="M134.9,9.7h-8.4v7.7h8.3v2.4h-8.3v9h9.9v2.4h-13.2V7.3h11.7V9.7z"/>
	<path class="st2" d="M150.9,28.5L150.9,28.5c-1.3,1.7-3.1,3.1-5.8,3.1c-4.6,0-7.5-3.7-7.5-9.1c0-4.4,3.2-8.7,7.9-8.7
		c2.3,0,4.4,0.9,5.4,2.5h0.1V6.2h3.1v25h-3.1V28.5z M150.9,22.1c0-3.2-1.7-6.2-5.1-6.2c-3.5,0-5,2.8-5,6.4c0,3.6,1.6,7.1,4.8,7.1
		C149.4,29.4,150.9,25.9,150.9,22.1z"/>
	<path class="st2" d="M169.9,14.1c1.7,4,3.3,8.1,5,13h0.1c1.3-5,2.7-9.1,4.1-13.3l2.8,0.5l-6,16.9h-2.1c-1.7-4.2-3.4-8.4-5.1-13.3
		h-0.1c-1.6,4.8-3.3,9-5,13.3h-2l-5.9-16.6l3-0.7c1.4,4.2,2.8,8.3,4.2,13.3h0.1c1.6-4.9,3.3-8.9,5-13H169.9z"/>
	<path class="st2" d="M191.4,29.3c-1.2,1.2-2.7,2.2-4.2,2.2c-2.9,0-4.8-2-4.8-5.2c0-3,2.5-4.8,6.1-5.9l4.1-1.3
		c-0.1-2.1-1.7-3.4-3.4-3.4c-2,0-3.2,0.8-4.5,1.8l-1.2-1.5c1.7-1.6,3.4-2.3,5.8-2.3c2.5,0,6.3,0.8,6.3,5.8V27c0,1.3,0.2,2.9,0.7,4.1
		H193c-0.4-0.7-0.5-1.8-0.5-2.9L191.4,29.3z M189.6,22c-2.7,0.8-4.1,2.1-4.1,4.2c0,1.8,1.2,2.9,2.4,2.9c2.2,0,5-2.7,4.6-8L189.6,22z
		"/>
	<path class="st2" d="M202.5,16.2l1.2-1.3c0.7-0.7,1.8-1.2,2.5-1.2c0.7,0,1.9,0.5,2.8,1.7l-1.4,2c-0.7-0.4-1.5-0.7-2.3-0.7
		c-1.6,0-2.9,1.6-2.9,5.3v9.1h-3.1v-17h3V16.2z"/>
	<path class="st2" d="M222.6,28.5L222.6,28.5c-1.3,1.7-3.1,3.1-5.8,3.1c-4.6,0-7.5-3.7-7.5-9.1c0-4.4,3.2-8.7,7.9-8.7
		c2.3,0,4.4,0.9,5.4,2.5h0.1V6.2h3.1v25h-3.1V28.5z M222.6,22.1c0-3.2-1.7-6.2-5.1-6.2c-3.5,0-5,2.8-5,6.4c0,3.6,1.6,7.1,4.8,7.1
		C221,29.4,222.6,25.9,222.6,22.1z"/>
	<path class="st2" d="M238.7,7.3h6.8c3.9,0,6.9,2,6.9,6.1c0,3.5-1.7,5.5-4,6.9l5.9,10.1l-3.3,1l-5.5-10.3H242v9.9h-3.3V7.3z
		 M242,18.9h1.9c4.2,0,5-3.1,5-5.1c0-2.9-1.8-4-4-4H242V18.9z"/>
	<path class="st2" d="M258.6,27.2c1.2,0,2.2,1,2.2,2.2c0,1.1-1,2.2-2.1,2.2c-1.2,0-2.2-1-2.2-2.2C256.4,28.2,257.5,27.2,258.6,27.2z
		"/>
	<path class="st2" d="M300,31.1h-3.3V11.8h-0.1c-1,2.8-6.4,13.3-9.6,19.4h-1.3c-3-6.1-7.9-16.2-8.8-19.4h-0.1v19.4h-2.7V7.3h3.5
		c3.1,6.3,6.1,12.7,9.1,19.4c3.4-6.7,6.7-13.1,10.1-19.4h3.1V31.1z"/>
	<path class="st2" d="M315.7,29.2c-1.7,1.5-3.3,2.4-5.5,2.4c-3.9,0-6-2.2-6-6.5V14.1h3.1v10.3c0,3.2,1.4,4.9,4.1,4.9
		c2.3,0,4.3-1.9,4.3-5.2v-9.9h3.1v17h-3V29.2z"/>
	<path class="st2" d="M325.8,16.2L327,15c0.7-0.7,1.8-1.2,2.5-1.2c0.7,0,1.9,0.5,2.8,1.7l-1.4,2c-0.7-0.4-1.5-0.7-2.3-0.7
		c-1.6,0-2.9,1.6-2.9,5.3v9.1h-3.1v-17h3V16.2z"/>
	<path class="st2" d="M336.7,16.2l1.2-1.3c0.7-0.7,1.8-1.2,2.5-1.2c0.7,0,1.9,0.5,2.8,1.7l-1.4,2c-0.7-0.4-1.5-0.7-2.3-0.7
		c-1.6,0-2.9,1.6-2.9,5.3v9.1h-3.1v-17h3V16.2z"/>
	<path class="st2" d="M343.4,22.4c0-5.5,4.1-8.7,8.4-8.7c4.3,0,8.4,3.2,8.4,8.7c0,5.3-3.4,9.1-8.4,9.1
		C346.7,31.5,343.4,27.7,343.4,22.4z M346.6,22.4c0,3.2,1.1,6.9,5.1,6.9c4,0,5.1-3.7,5.1-6.9c0-3.1-1.3-6.5-5.1-6.5
		C347.9,15.9,346.6,19.4,346.6,22.4z"/>
	<path class="st2" d="M374.9,14.1c1.7,4,3.3,8.1,5,13h0.1c1.3-5,2.7-9.1,4.1-13.3l2.8,0.5l-6,16.9h-2.1c-1.7-4.2-3.4-8.4-5.1-13.3
		h-0.1c-1.6,4.8-3.3,9-5,13.3h-2l-5.9-16.6l3-0.7c1.4,4.2,2.8,8.3,4.2,13.3h0.1c1.6-4.9,3.3-8.9,5-13H374.9z"/>
	<path class="st2" d="M415.6,11.4c-1.1-0.9-3.7-2.1-6.2-2.1c-5.9,0-9.3,4.2-9.3,9.8c0,6,4.1,10.1,9.3,10.1c2.6,0,4.6-0.8,6-1.8
		l1.3,2c-1.6,1.1-4.4,2.2-7.5,2.2c-8.5,0-12.8-5.8-12.8-12.4c0-6,4.7-12.2,13.2-12.2c3.4,0,5.8,1.2,7.3,2.4L415.6,11.4z"/>
	<path class="st2" d="M418.4,22.4c0-5.5,4.1-8.7,8.4-8.7c4.3,0,8.4,3.2,8.4,8.7c0,5.3-3.4,9.1-8.4,9.1
		C421.8,31.5,418.4,27.7,418.4,22.4z M421.7,22.4c0,3.2,1.1,6.9,5.1,6.9c4,0,5.1-3.7,5.1-6.9c0-3.1-1.3-6.5-5.1-6.5
		C422.9,15.9,421.7,19.4,421.7,22.4z"/>
	<path class="st2" d="M438,31.1v-25h3.1v25H438z"/>
	<path class="st2" d="M445.1,31.1v-25h3.1v25H445.1z"/>
	<path class="st2" d="M454.3,22.8c0,3.4,2.4,6.5,5.7,6.5c1.6,0,3.5-0.6,4.7-1.5l0.9,1.7c-1.8,1.3-3.9,2-5.6,2
		c-5.3,0-8.8-3.3-8.8-9.2c0-5.9,4.2-8.6,8.1-8.6c5.2,0,6.9,4.7,6.6,9.1H454.3z M462.9,20.8c0-2.7-1.1-4.9-3.8-4.9
		c-3.3,0-4.6,2.7-4.7,4.9H462.9z"/>
	<path class="st2" d="M483.8,30.5c0,6.5-4,9.1-8.6,9.1c-2.5,0-5-0.5-7-1.7l0.8-2c2.1,1.2,4,1.5,6.1,1.5c3.5,0,5.6-2.2,5.6-6.7v-2.3
		h-0.1c-1.2,1.7-3,3.1-5.7,3.1c-4.7,0-7.6-3.7-7.6-9.1c0-4.4,3.3-8.7,8.1-8.7c2,0,4.2,1,5.2,2.8h0.1v-2.3h3.1V30.5z M480.7,22.1
		c0-3.2-1.7-6.2-5.1-6.2c-3.5,0-5,2.8-5,6.4c0,3.6,1.6,7.1,4.8,7.1C479.1,29.4,480.7,25.9,480.7,22.1z"/>
	<path class="st2" d="M489.8,22.8c0,3.4,2.4,6.5,5.7,6.5c1.6,0,3.5-0.6,4.7-1.5l0.9,1.7c-1.8,1.3-3.9,2-5.6,2
		c-5.3,0-8.8-3.3-8.8-9.2c0-5.9,4.2-8.6,8.1-8.6c5.2,0,6.9,4.7,6.6,9.1H489.8z M498.4,20.8c0-2.7-1.1-4.9-3.8-4.9
		c-3.3,0-4.6,2.7-4.7,4.9H498.4z"/>
	<path class="st2" d="M511.6,22.4c0-5.5,4.1-8.7,8.4-8.7c4.3,0,8.4,3.2,8.4,8.7c0,5.3-3.4,9.1-8.4,9.1
		C515,31.5,511.6,27.7,511.6,22.4z M514.9,22.4c0,3.2,1.1,6.9,5.1,6.9c4,0,5.1-3.7,5.1-6.9c0-3.1-1.3-6.5-5.1-6.5
		C516.2,15.9,514.9,19.4,514.9,22.4z"/>
	<path class="st2" d="M531.4,31.1V15.9h-2.7v-1.8h2.7v-2.1c0-4.6,3.1-5.9,5-5.9c0.9,0,1.9,0.2,2.7,0.7l-0.7,1.6
		c-0.5-0.1-1-0.2-1.7-0.2c-0.5,0-2.2,0.1-2.2,2.9v3.1h4.1v1.8h-4.1v15.2H531.4z"/>
	<path class="st2" d="M567.4,11.4c-1.1-0.9-3.7-2.1-6.2-2.1c-5.9,0-9.3,4.2-9.3,9.8c0,6,4.1,10.1,9.3,10.1c2.6,0,4.6-0.8,6-1.8
		l1.3,2c-1.6,1.1-4.4,2.2-7.5,2.2c-8.5,0-12.8-5.8-12.8-12.4c0-6,4.7-12.2,13.2-12.2c3.4,0,5.8,1.2,7.3,2.4L567.4,11.4z"/>
	<path class="st2" d="M570.2,22.4c0-5.5,4.1-8.7,8.4-8.7c4.3,0,8.4,3.2,8.4,8.7c0,5.3-3.4,9.1-8.4,9.1
		C573.6,31.5,570.2,27.7,570.2,22.4z M573.5,22.4c0,3.2,1.1,6.9,5.1,6.9c4,0,5.1-3.7,5.1-6.9c0-3.1-1.3-6.5-5.1-6.5
		C574.8,15.9,573.5,19.4,573.5,22.4z"/>
	<path class="st2" d="M592.9,16.2c1.4-1.6,3.4-2.5,5.3-2.5c2.7,0,4.4,1.1,5.4,2.5c1.6-1.5,3.9-2.5,5.8-2.5c3.8,0,5.7,2.4,5.8,6.1
		v11.4h-3.1V21c0-2.4-0.6-4.9-3.7-4.9c-2.6,0-4.4,1.4-4.4,4.8v10.2H601V21c0-3.2-1.4-4.9-3.8-4.9c-2.6,0-4.2,1.7-4.2,4.9v10.1h-3.1
		v-17h3V16.2z"/>
	<path class="st2" d="M622.3,16.2c1.4-1.6,3.4-2.5,5.3-2.5c2.7,0,4.4,1.1,5.4,2.5c1.6-1.5,3.9-2.5,5.8-2.5c3.8,0,5.7,2.4,5.8,6.1
		v11.4h-3.1V21c0-2.4-0.6-4.9-3.7-4.9c-2.6,0-4.4,1.4-4.4,4.8v10.2h-3.1V21c0-3.2-1.4-4.9-3.8-4.9c-2.6,0-4.2,1.7-4.2,4.9v10.1h-3.1
		v-17h3V16.2z"/>
	<path class="st2" d="M660.1,29.2c-1.7,1.5-3.3,2.4-5.5,2.4c-3.9,0-6-2.2-6-6.5V14.1h3.1v10.3c0,3.2,1.4,4.9,4.1,4.9
		c2.3,0,4.3-1.9,4.3-5.2v-9.9h3.1v17h-3V29.2z"/>
	<path class="st2" d="M670.2,16.2c1.6-1.7,4-2.5,5.8-2.5c3.9,0,6,2.2,6,6.5v10.9h-3.1V20.8c0-3.2-1.4-4.9-4.1-4.9
		c-2.4,0-4.6,1.7-4.6,4.9v10.2h-3.1v-17h3V16.2z"/>
	<path class="st2" d="M685.6,8.5c0-0.9,0.7-1.8,1.9-1.8c1.2,0,1.9,1,1.9,1.8c0,0.9-0.4,2.1-1.9,2.1C686.1,10.6,685.6,9.5,685.6,8.5z
		 M689.1,14.1v17H686v-17H689.1z"/>
	<path class="st2" d="M706.2,29.8c-1.7,1.2-3.7,1.8-5.1,1.8c-8.1,0-9.1-6.6-9.1-8.9c0-4.2,2.8-8.9,9.2-8.9c1.7,0,3.3,0.4,4.6,1.4
		l-1,1.7c-1-0.5-2.2-0.9-3.5-0.9c-2.8,0-5.9,1.8-5.9,6.5c0,3.5,1.8,6.9,5.9,6.9c1.5,0,2.8-0.4,4.1-1.2L706.2,29.8z"/>
	<path class="st2" d="M716.4,29.3c-1.2,1.2-2.7,2.2-4.2,2.2c-2.9,0-4.8-2-4.8-5.2c0-3,2.5-4.8,6.1-5.9l4.1-1.3
		c-0.1-2.1-1.7-3.4-3.4-3.4c-2,0-3.2,0.8-4.5,1.8l-1.2-1.5c1.7-1.6,3.4-2.3,5.8-2.3c2.5,0,6.3,0.8,6.3,5.8V27c0,1.3,0.2,2.9,0.7,4.1
		H718c-0.4-0.7-0.5-1.8-0.5-2.9L716.4,29.3z M714.6,22c-2.7,0.8-4.1,2.1-4.1,4.2c0,1.8,1.2,2.9,2.4,2.9c2.2,0,5-2.7,4.6-8L714.6,22z
		"/>
	<path class="st2" d="M728.3,14.1h4.5v1.8h-4.5v9.6c0,2.4,0.5,3.8,2.3,3.8c1.1,0,1.8-0.3,2.3-0.6l0.7,1.7c-1.1,0.7-2.3,1.1-3.5,1.1
		c-3.4,0-5-2-5-5.4V15.9h-2.4v-1.8h2.4v-4.1l3.1-1V14.1z"/>
	<path class="st2" d="M734.9,8.5c0-0.9,0.7-1.8,1.9-1.8c1.2,0,1.9,1,1.9,1.8c0,0.9-0.4,2.1-1.9,2.1C735.3,10.6,734.9,9.5,734.9,8.5z
		 M738.3,14.1v17h-3.1v-17H738.3z"/>
	<path class="st2" d="M741.2,22.4c0-5.5,4.1-8.7,8.4-8.7c4.3,0,8.4,3.2,8.4,8.7c0,5.3-3.4,9.1-8.4,9.1
		C744.6,31.5,741.2,27.7,741.2,22.4z M744.5,22.4c0,3.2,1.1,6.9,5.1,6.9c4,0,5.1-3.7,5.1-6.9c0-3.1-1.3-6.5-5.1-6.5
		C745.8,15.9,744.5,19.4,744.5,22.4z"/>
	<path class="st2" d="M763.9,16.2c1.6-1.7,4-2.5,5.8-2.5c3.9,0,6,2.2,6,6.5v10.9h-3.1V20.8c0-3.2-1.4-4.9-4.1-4.9
		c-2.4,0-4.6,1.7-4.6,4.9v10.2h-3.1v-17h3V16.2z"/>
</g>
</svg>
