<?xml version="1.0" encoding="utf-8"?>
<!-- Generator: Adobe Illustrator 21.0.0, SVG Export Plug-In . SVG Version: 6.00 Build 0)  -->
<!DOCTYPE svg PUBLIC "-//W3C//DTD SVG 1.1//EN" "http://www.w3.org/Graphics/SVG/1.1/DTD/svg11.dtd">
<svg version="1.1" id="Layer_1" xmlns="http://www.w3.org/2000/svg" xmlns:xlink="http://www.w3.org/1999/xlink" x="0px" y="0px"
	 viewBox="0 0 337.5 60.2" enable-background="new 0 0 337.5 60.2" xml:space="preserve">
<g>
	<g>
		<path fill="#68737A" d="M61,24.7V9h-5.6V7.2H69V9h-5.6v15.8H61z"/>
		<path fill="#68737A" d="M72,13.8c1.2-1.3,3-1.9,4.3-1.9c2.9,0,4.4,1.6,4.4,4.8v8.1h-2.3v-7.6c0-2.4-1-3.6-3-3.6
			c-1.8,0-3.4,1.2-3.4,3.6v7.5h-2.3V6.3H72V13.8z"/>
		<path fill="#68737A" d="M84.6,18.6c0,2.5,1.8,4.8,4.2,4.8c1.2,0,2.6-0.4,3.4-1.1l0.7,1.2c-1.3,0.9-2.9,1.5-4.2,1.5
			c-3.9,0-6.5-2.4-6.5-6.8c0-4.3,3.1-6.3,5.9-6.3c3.8,0,5.1,3.4,4.8,6.7H84.6z M91,17.1c0-2-0.8-3.6-2.8-3.6c-2.4,0-3.4,2-3.4,3.6
			H91z"/>
		<path fill="#68737A" d="M109.4,9h-6.2v5.7h6.1v1.8h-6.1V23h7.3v1.8h-9.7V7.2h8.6V9z"/>
		<path fill="#68737A" d="M120.7,22.7L120.7,22.7c-0.9,1.2-2.3,2.3-4.3,2.3c-3.4,0-5.5-2.7-5.5-6.7c0-3.3,2.4-6.4,5.8-6.4
			c1.7,0,3.2,0.7,4,1.9h0V6.3h2.3v18.4h-2.3V22.7z M120.7,18.1c0-2.4-1.3-4.6-3.7-4.6c-2.6,0-3.7,2.1-3.7,4.7c0,2.7,1.2,5.2,3.5,5.2
			C119.5,23.4,120.7,20.8,120.7,18.1z"/>
		<path fill="#68737A" d="M134.1,12.2c1.2,3,2.5,6,3.7,9.6h0.1c1-3.7,2-6.7,3-9.8l2.1,0.4l-4.4,12.4h-1.6c-1.3-3.1-2.5-6.2-3.8-9.8
			h0c-1.2,3.6-2.4,6.7-3.7,9.8h-1.5l-4.3-12.2l2.2-0.6c1,3.1,2.1,6.1,3.1,9.8h0.1c1.2-3.6,2.4-6.6,3.7-9.6H134.1z"/>
		<path fill="#68737A" d="M149.4,23.4c-0.9,0.9-2,1.7-3.1,1.7c-2.1,0-3.6-1.5-3.6-3.9c0-2.2,1.9-3.6,4.5-4.3l3-1
			c-0.1-1.5-1.3-2.5-2.5-2.5c-1.5,0-2.4,0.6-3.3,1.4l-0.9-1.1c1.3-1.2,2.5-1.7,4.3-1.7c1.9,0,4.6,0.6,4.6,4.3v5.5
			c0,1,0.1,2.2,0.6,3.1h-2.5c-0.3-0.5-0.4-1.3-0.4-2.1L149.4,23.4z M148.1,18c-2,0.6-3,1.6-3,3.1c0,1.3,0.9,2.1,1.8,2.1
			c1.6,0,3.7-2,3.4-5.9L148.1,18z"/>
		<path fill="#68737A" d="M157,13.8l0.9-1c0.5-0.5,1.4-0.9,1.9-0.9c0.6,0,1.4,0.4,2.1,1.2l-1,1.5c-0.6-0.3-1.1-0.5-1.7-0.5
			c-1.2,0-2.1,1.2-2.1,3.9v6.7h-2.3V12.2h2.2V13.8z"/>
		<path fill="#68737A" d="M171.3,22.7L171.3,22.7C170.4,24,169,25,167,25c-3.4,0-5.5-2.7-5.5-6.7c0-3.3,2.4-6.4,5.8-6.4
			c1.7,0,3.2,0.7,4,1.9h0V6.3h2.3v18.4h-2.3V22.7z M171.3,18.1c0-2.4-1.3-4.6-3.7-4.6c-2.6,0-3.7,2.1-3.7,4.7c0,2.7,1.2,5.2,3.5,5.2
			C170.1,23.4,171.3,20.8,171.3,18.1z"/>
		<path fill="#68737A" d="M182.1,7.2h5c2.9,0,5.1,1.5,5.1,4.5c0,2.6-1.3,4-2.9,5.1l4.4,7.5l-2.5,0.8l-4.1-7.6h-2.6v7.3h-2.4V7.2z
			 M184.5,15.7h1.4c3.1,0,3.7-2.3,3.7-3.8c0-2.2-1.4-3-3-3h-2.1V15.7z"/>
		<path fill="#68737A" d="M196.3,21.8c0.9,0,1.6,0.8,1.6,1.6c0,0.8-0.8,1.6-1.6,1.6c-0.9,0-1.6-0.7-1.6-1.6
			C194.7,22.5,195.4,21.8,196.3,21.8z"/>
		<path fill="#68737A" d="M225.7,24.7h-2.4V10.5h-0.1c-0.7,2.1-4.7,9.8-7,14.3h-1c-2.2-4.5-5.8-12-6.5-14.3h-0.1v14.3h-2V7.2h2.6
			c2.3,4.7,4.5,9.3,6.7,14.3c2.5-4.9,5-9.6,7.4-14.3h2.3V24.7z"/>
		<path fill="#68737A" d="M236.7,23.3c-1.3,1.1-2.4,1.8-4,1.8c-2.9,0-4.4-1.6-4.4-4.8v-8.1h2.3v7.6c0,2.4,1,3.6,3,3.6
			c1.7,0,3.2-1.4,3.2-3.9v-7.3h2.3v12.5h-2.2V23.3z"/>
		<path fill="#68737A" d="M243.6,13.8l0.9-1c0.5-0.5,1.4-0.9,1.9-0.9c0.5,0,1.4,0.4,2.1,1.2l-1,1.5c-0.6-0.3-1.1-0.5-1.7-0.5
			c-1.2,0-2.1,1.2-2.1,3.9v6.7h-2.3V12.2h2.2V13.8z"/>
		<path fill="#68737A" d="M251.1,13.8l0.9-1c0.5-0.5,1.4-0.9,1.9-0.9c0.5,0,1.4,0.4,2.1,1.2l-1,1.5c-0.6-0.3-1.1-0.5-1.7-0.5
			c-1.2,0-2.1,1.2-2.1,3.9v6.7h-2.3V12.2h2.2V13.8z"/>
		<path fill="#68737A" d="M255.5,18.3c0-4.1,3-6.4,6.2-6.4c3.2,0,6.2,2.4,6.2,6.4c0,3.9-2.5,6.7-6.2,6.7
			C258,25,255.5,22.2,255.5,18.3z M257.9,18.3c0,2.4,0.8,5.1,3.7,5.1c3,0,3.8-2.8,3.8-5.1c0-2.3-0.9-4.8-3.8-4.8
			C258.8,13.5,257.9,16.1,257.9,18.3z"/>
		<path fill="#68737A" d="M278.2,12.2c1.2,3,2.5,6,3.7,9.6h0c1-3.7,2-6.7,3-9.8l2.1,0.4l-4.4,12.4H281c-1.3-3.1-2.5-6.2-3.8-9.8
			h-0.1c-1.2,3.6-2.4,6.7-3.7,9.8H272l-4.3-12.2l2.2-0.6c1,3.1,2.1,6.1,3.1,9.8h0c1.2-3.6,2.4-6.6,3.7-9.6H278.2z"/>
		<path fill="#68737A" d="M70.6,35.7c-0.8-0.7-2.7-1.5-4.6-1.5c-4.3,0-6.9,3.1-6.9,7.2c0,4.4,3.1,7.4,6.9,7.4c1.9,0,3.4-0.6,4.4-1.3
			l1,1.5c-1.2,0.8-3.3,1.6-5.5,1.6c-6.3,0-9.4-4.3-9.4-9.1c0-4.4,3.5-9,9.7-9c2.5,0,4.3,0.9,5.4,1.8L70.6,35.7z"/>
		<path fill="#68737A" d="M72.1,43.8c0-4.1,3-6.4,6.2-6.4c3.2,0,6.2,2.4,6.2,6.4c0,3.9-2.5,6.7-6.2,6.7
			C74.6,50.5,72.1,47.7,72.1,43.8z M74.5,43.8c0,2.4,0.8,5.1,3.7,5.1c3,0,3.8-2.8,3.8-5.1c0-2.3-0.9-4.8-3.8-4.8
			C75.4,39,74.5,41.6,74.5,43.8z"/>
		<path fill="#68737A" d="M86.7,50.2V31.8h2.3v18.4H86.7z"/>
		<path fill="#68737A" d="M92,50.2V31.8h2.3v18.4H92z"/>
		<path fill="#68737A" d="M98.8,44.1c0,2.5,1.8,4.8,4.2,4.8c1.2,0,2.6-0.4,3.4-1.1l0.7,1.2c-1.3,0.9-2.9,1.5-4.2,1.5
			c-3.9,0-6.5-2.4-6.5-6.8c0-4.3,3.1-6.3,5.9-6.3c3.8,0,5.1,3.4,4.8,6.7H98.8z M105.2,42.6c0-2-0.8-3.6-2.8-3.6
			c-2.4,0-3.4,2-3.4,3.6H105.2z"/>
		<path fill="#68737A" d="M120.6,49.8c0,4.8-3,6.7-6.4,6.7c-1.9,0-3.7-0.3-5.2-1.3l0.6-1.5c1.5,0.9,2.9,1.1,4.5,1.1
			c2.6,0,4.2-1.7,4.2-4.9v-1.7h0c-0.9,1.2-2.2,2.3-4.2,2.3c-3.5,0-5.6-2.7-5.6-6.7c0-3.3,2.4-6.4,6-6.4c1.5,0,3.1,0.8,3.8,2h0v-1.7
			h2.3V49.8z M118.4,43.6c0-2.4-1.3-4.6-3.7-4.6c-2.6,0-3.7,2.1-3.7,4.7c0,2.7,1.2,5.2,3.5,5.2C117.2,48.9,118.4,46.3,118.4,43.6z"
			/>
		<path fill="#68737A" d="M125.1,44.1c0,2.5,1.8,4.8,4.2,4.8c1.2,0,2.6-0.4,3.4-1.1l0.7,1.2c-1.3,0.9-2.9,1.5-4.2,1.5
			c-3.9,0-6.5-2.4-6.5-6.8c0-4.3,3.1-6.3,5.9-6.3c3.8,0,5.1,3.4,4.8,6.7H125.1z M131.5,42.6c0-2-0.8-3.6-2.8-3.6
			c-2.4,0-3.4,2-3.4,3.6H131.5z"/>
		<path fill="#68737A" d="M141.4,43.8c0-4.1,3-6.4,6.2-6.4c3.2,0,6.2,2.4,6.2,6.4c0,3.9-2.5,6.7-6.2,6.7
			C143.9,50.5,141.4,47.7,141.4,43.8z M143.8,43.8c0,2.4,0.8,5.1,3.7,5.1c3,0,3.8-2.8,3.8-5.1c0-2.3-0.9-4.8-3.8-4.8
			C144.8,39,143.8,41.6,143.8,43.8z"/>
		<path fill="#68737A" d="M156.1,50.2V39h-2v-1.3h2v-1.5c0-3.4,2.3-4.4,3.7-4.4c0.7,0,1.4,0.1,2,0.5l-0.5,1.2
			c-0.4-0.1-0.7-0.2-1.2-0.2c-0.4,0-1.7,0.1-1.7,2.1v2.3h3V39h-3v11.2H156.1z"/>
		<path fill="#68737A" d="M182.8,35.7c-0.8-0.7-2.7-1.5-4.6-1.5c-4.3,0-6.9,3.1-6.9,7.2c0,4.4,3.1,7.4,6.9,7.4
			c1.9,0,3.4-0.6,4.4-1.3l1,1.5c-1.2,0.8-3.3,1.6-5.5,1.6c-6.3,0-9.4-4.3-9.4-9.1c0-4.4,3.5-9,9.7-9c2.5,0,4.3,0.9,5.4,1.8
			L182.8,35.7z"/>
		<path fill="#68737A" d="M184.3,43.8c0-4.1,3-6.4,6.2-6.4c3.2,0,6.2,2.4,6.2,6.4c0,3.9-2.5,6.7-6.2,6.7
			C186.8,50.5,184.3,47.7,184.3,43.8z M186.8,43.8c0,2.4,0.8,5.1,3.7,5.1c3,0,3.8-2.8,3.8-5.1c0-2.3-0.9-4.8-3.8-4.8
			C187.7,39,186.8,41.6,186.8,43.8z"/>
		<path fill="#68737A" d="M201.1,39.3c1-1.2,2.5-1.9,3.9-1.9c2,0,3.2,0.8,4,1.9c1.2-1.1,2.9-1.9,4.3-1.9c2.8,0,4.2,1.8,4.3,4.5v8.4
			h-2.3v-7.5c0-1.8-0.5-3.6-2.8-3.6c-1.9,0-3.2,1-3.2,3.5v7.5h-2.3v-7.5c0-2.4-1-3.6-2.8-3.6c-1.9,0-3.1,1.2-3.1,3.6v7.4h-2.3V37.7
			h2.2V39.3z"/>
		<path fill="#68737A" d="M222.9,39.3c1-1.2,2.5-1.9,3.9-1.9c2,0,3.2,0.8,4,1.9c1.2-1.1,2.9-1.9,4.3-1.9c2.8,0,4.2,1.8,4.3,4.5v8.4
			h-2.3v-7.5c0-1.8-0.5-3.6-2.8-3.6c-1.9,0-3.2,1-3.2,3.5v7.5h-2.3v-7.5c0-2.4-1-3.6-2.8-3.6c-1.9,0-3.1,1.2-3.1,3.6v7.4h-2.3V37.7
			h2.2V39.3z"/>
		<path fill="#68737A" d="M250.8,48.8c-1.3,1.1-2.4,1.8-4,1.8c-2.9,0-4.4-1.6-4.4-4.8v-8.1h2.3v7.6c0,2.4,1,3.6,3,3.6
			c1.7,0,3.2-1.4,3.2-3.9v-7.3h2.3v12.5h-2.2V48.8z"/>
		<path fill="#68737A" d="M258.3,39.3c1.2-1.3,3-1.9,4.3-1.9c2.9,0,4.4,1.6,4.4,4.8v8.1h-2.3v-7.6c0-2.4-1-3.6-3-3.6
			c-1.8,0-3.4,1.2-3.4,3.6v7.5h-2.3V37.7h2.2V39.3z"/>
		<path fill="#68737A" d="M269.8,33.6c0-0.6,0.5-1.3,1.4-1.3c0.9,0,1.4,0.7,1.4,1.3c0,0.7-0.3,1.5-1.4,1.5
			C270.1,35.1,269.8,34.3,269.8,33.6z M272.4,37.7v12.5h-2.3V37.7H272.4z"/>
		<path fill="#68737A" d="M285,49.2c-1.2,0.9-2.7,1.3-3.8,1.3c-5.9,0-6.7-4.9-6.7-6.6c0-3.1,2.1-6.5,6.8-6.5c1.3,0,2.4,0.3,3.4,1
			l-0.8,1.3c-0.7-0.4-1.7-0.7-2.6-0.7c-2.1,0-4.4,1.4-4.4,4.8c0,2.6,1.3,5.1,4.4,5.1c1.1,0,2.1-0.3,3.1-0.9L285,49.2z"/>
		<path fill="#68737A" d="M292.7,48.9c-0.9,0.9-2,1.7-3.1,1.7c-2.1,0-3.6-1.5-3.6-3.9c0-2.2,1.9-3.6,4.5-4.3l3-1
			c-0.1-1.5-1.3-2.5-2.5-2.5c-1.5,0-2.4,0.6-3.3,1.4l-0.9-1.1c1.3-1.2,2.5-1.7,4.3-1.7c1.9,0,4.6,0.6,4.6,4.3v5.5
			c0,1,0.1,2.2,0.6,3.1h-2.5c-0.3-0.5-0.4-1.3-0.4-2.1L292.7,48.9z M291.3,43.5c-2,0.6-3,1.6-3,3.1c0,1.3,0.9,2.1,1.8,2.1
			c1.6,0,3.7-2,3.4-5.9L291.3,43.5z"/>
		<path fill="#68737A" d="M300.9,37.7h3.3V39h-3.3v7.1c0,1.8,0.3,2.8,1.7,2.8c0.8,0,1.3-0.2,1.7-0.4l0.6,1.3
			c-0.8,0.5-1.7,0.8-2.6,0.8c-2.5,0-3.7-1.5-3.7-4V39h-1.8v-1.3h1.8v-3l2.3-0.8V37.7z"/>
		<path fill="#68737A" d="M305.8,33.6c0-0.6,0.5-1.3,1.4-1.3c0.9,0,1.4,0.7,1.4,1.3c0,0.7-0.3,1.5-1.4,1.5
			C306.1,35.1,305.8,34.3,305.8,33.6z M308.4,37.7v12.5h-2.3V37.7H308.4z"/>
		<path fill="#68737A" d="M310.6,43.8c0-4.1,3-6.4,6.2-6.4c3.2,0,6.2,2.4,6.2,6.4c0,3.9-2.5,6.7-6.2,6.7
			C313.1,50.5,310.6,47.7,310.6,43.8z M313,43.8c0,2.4,0.8,5.1,3.7,5.1c3,0,3.8-2.8,3.8-5.1c0-2.3-0.9-4.8-3.8-4.8
			C314,39,313,41.6,313,43.8z"/>
		<path fill="#68737A" d="M327.4,39.3c1.2-1.3,3-1.9,4.3-1.9c2.9,0,4.4,1.6,4.4,4.8v8.1h-2.3v-7.6c0-2.4-1-3.6-3-3.6
			c-1.8,0-3.4,1.2-3.4,3.6v7.5h-2.3V37.7h2.2V39.3z"/>
	</g>
</g>
<rect x="43.3" fill="#68737A" width="0.7" height="60.2"/>
<g>
	<path fill="#68737A" d="M21.3,38.5l-5.4,3.8l-5.4-3.8c-3.8-2.6-7.1-4.9-8.8-8.3c1.4,6.4,7.7,8.8,14.2,13.9
		c6.6-5.1,12.8-7.5,14.2-13.9C28.4,33.6,25.1,35.9,21.3,38.5z"/>
	<path fill="#A90533" d="M0.9,7.2v0.7C1.3,8,1.4,8.1,1.5,8.8v15.5c0,8.6,7,10.9,14.4,16.7c7.4-5.8,14.4-8.1,14.4-16.7V8.6
		c0.1-0.5,0.2-0.6,0.6-0.7V7.2H0.9z"/>
	<g>
		<g>
			<g>
				<path fill="#FFFFFF" d="M18.8,32.4c0,0,1.2-0.5,1.9-2.5c0.6,1.2,0.4,2.4,0.4,2.4C20.6,32.5,18.8,32.4,18.8,32.4z"/>
				<path fill="#FFFFFF" d="M25.2,21.1c0,0,0.7,4-1.9,4.1c-2.5,0.1-3.7-3.6-3.7-3.6s0.6,7.3,4.1,6.8C27.8,27.9,25.2,21.1,25.2,21.1z
					"/>
			</g>
		</g>
		<path fill="#FFFFFF" d="M6.2,31.4C6.3,31.4,6.3,31.4,6.2,31.4c2.9-0.7,5.2-4.1,5.8-5.4l0.4-0.9l0.3,0.9c0,0.1,0.3,1.1,0.3,2.4
			c0,0.1,0,0.3,0,0.5c1,0,1.7-0.2,2.2-0.6c0.6-0.7,0.8-1.9,0.6-3.8c-0.1-0.9-0.5-2.4-0.8-3.7c-0.2-0.7-0.3-1.3-0.4-1.7
			c-0.6-2.8,0.1-4.6,0.8-5.5c0.1-0.2,0.2-0.3,0.3-0.4c-2,0.7-3.7,1.7-5.5,3.5l1.2,1.4l0.5-0.5c0.5,1.8,0.1,3.4,0.1,3.4
			c-0.6-1-1.4-1.8-1.4-1.8l0.3-0.6L10,17.3l-0.1-0.1c-1.4,1.9-1.8,3.4-1.8,3.4l1,0.9L9.6,22l0.2-0.5c1,1.9,0.1,3.8,0.1,3.8
			C9.7,24.5,9,23.5,9,23.5l0.3-0.9l-1.4-1.3c-1.5,4.7-3.5,6.2-3.5,6.2s2.2-0.4,3.4-0.8C7.7,26.7,7.7,29.2,6.2,31.4z"/>
		<path fill="#FFFFFF" d="M28.1,14.6l-3.5,0.1c0,0.4-0.1,0.8-0.2,1.2c0.3,1.4,0.1,2.2,0.1,2.2c-0.6-1.3-1-1.7-1-1.7
			c-3.2-1.4-4.9,1.8-4.8,3.8c0.2,1.7,0.8,3.9,1.2,7.4c0.4,3-1.1,4.2-2.8,4.5c0,0-0.1,0-0.1,0c0,0,0,0,0,0c-0.3,0-0.6,0.1-0.9,0
			c0,0,0,0,0,0c0,0-0.1,0-0.1,0c-0.1,0-0.3,0-0.4,0c-1.3-0.2-4.3-0.7-7.4-0.8c1.8-1.1,3.2-2.9,4-4.2c0,0.4,0.1,0.8,0.1,1.3
			c0,0.2,0,0.5,0,0.8l0,0.4l0.4,0c1.4,0.1,2.4-0.1,3.1-0.8c0.8-0.8,1.1-2.2,0.8-4.4c-0.1-1-0.5-2.4-0.8-3.7
			c-0.2-0.7-0.3-1.3-0.4-1.7c-0.5-2.6,0.1-4.1,0.7-5c0.5-0.7,1.1-1.2,1.8-1.4c0,0,0,0,0,0l1.2-3.6h0.4l-0.8,3.5
			c0.2,0,0.4-0.1,0.6-0.1l1-3.2h0.4l-0.7,3.1c1.1-0.1,2.2-0.2,3.5-0.3c0.2,0.1,0.4,0.3,0.6,0.6l3.3-1l0.1,0.4l-3.2,1.2
			c0,0.1,0.1,0.1,0.1,0.2l3.5-0.4l0.1,0.4l-3.4,0.7c0,0.1,0,0.1,0,0.2l3.5,0.1L28.1,14.6z M18.1,16.2c0.7-0.5,1.9-0.9,3-0.8
			c0.3,0,0.5-0.1,0.2-0.2c-0.8-0.4-2.8-0.3-3.5,0.2c-1.1,0.7-0.9,2.1-0.9,2.1C17.1,17.1,17.5,16.5,18.1,16.2z"/>
	</g>
</g>
</svg>
