<?xml version="1.0" encoding="UTF-8"?>
<svg width="20px" height="21px" viewBox="0 0 20 21" version="1.1" xmlns="http://www.w3.org/2000/svg" xmlns:xlink="http://www.w3.org/1999/xlink">
    <!-- Generator: Sketch 45.1 (43504) - http://www.bohemiancoding.com/sketch -->
    <title>profile [#1336]</title>
    <desc>Created with Sketch.</desc>
    <defs></defs>
    <g id="Icons" stroke="none" stroke-width="1" fill="none" fill-rule="evenodd">
        <g id="Users" transform="translate(-340.000000, -100.000000)" fill="#FFFFFF">
            <g id="icons" transform="translate(20.000000, 20.000000)">
                <path d="M330,92.049 C333.785,92.049 336.958,94.263 337.784,98.049 L322.216,98.049 C323.042,94.263 326.215,92.049 330,92.049 M326,86.049 C326,83.843 327.794,82.049 330,82.049 C332.206,82.049 334,83.843 334,86.049 C334,88.255 332.206,90.049 330,90.049 C327.794,90.049 326,88.255 326,86.049 M333.758,90.722 C335.124,89.623 336,87.939 336,86.049 C336,82.735 333.314,80.049 330,80.049 C326.686,80.049 324,82.735 324,86.049 C324,87.939 324.876,89.623 326.242,90.722 C322.583,92.097 320,95.494 320,100.049 L340,100.049 C340,95.494 337.417,92.097 333.758,90.722" id="profile-[#1336]"></path>
            </g>
        </g>
    </g>
</svg>