<?xml version="1.0" encoding="UTF-8"?>
<svg width="15px" height="15px" viewBox="0 0 15 15" version="1.1" xmlns="http://www.w3.org/2000/svg" xmlns:xlink="http://www.w3.org/1999/xlink">
    <!-- Generator: Sketch 46 (44423) - http://www.bohemiancoding.com/sketch -->
    <title>call [#192]</title>
    <desc>Created with Sketch.</desc>
    <defs></defs>
    <g id="Icons" stroke="none" stroke-width="1" fill="none" fill-rule="evenodd">
        <g id="Tech" transform="translate(-63.000000, -182.000000)" fill="#FFFFFF">
            <g id="icons" transform="translate(20.000000, 20.000000)">
                <path d="M57.7302966,174.995958 C57.2672966,176.402958 55.4532966,177.104958 54.1572966,176.987958 C52.3872966,176.827958 50.4612966,175.888958 48.9992966,174.854958 C46.8502966,173.334958 44.8372966,170.983958 43.6642966,168.488958 C42.8352966,166.725958 42.6492966,164.557958 43.8822966,162.950958 C44.3382966,162.356958 44.8312966,162.039958 45.5722966,162.002958 C46.6002966,161.952958 46.7442966,162.540958 47.0972966,163.456958 C47.3602966,164.141958 47.7112966,164.840958 47.9072966,165.550958 C48.2742966,166.875958 46.9912966,166.930958 46.8292966,168.013958 C46.7282966,168.696958 47.5562966,169.612958 47.9302966,170.099958 C48.6632966,171.053958 49.5442966,171.876958 50.5382966,172.502958 C51.1072966,172.861958 52.0262966,173.508958 52.6782966,173.151958 C53.6822966,172.601958 53.5872966,170.908958 54.9912966,171.481958 C55.7182966,171.777958 56.4222966,172.204958 57.1162966,172.578958 C58.1892966,173.155958 58.1392966,173.753958 57.7302966,174.995958 C57.4242966,175.923958 58.0362966,174.067958 57.7302966,174.995958" id="call-[#192]"></path>
            </g>
        </g>
    </g>
</svg>