<?xml version="1.0" encoding="UTF-8"?>
<svg width="20px" height="12px" viewBox="0 0 20 12" version="1.1" xmlns="http://www.w3.org/2000/svg" xmlns:xlink="http://www.w3.org/1999/xlink">
    <!-- Generator: Sketch 46.1 (44463) - http://www.bohemiancoding.com/sketch -->
    <title>google_plus [#165]</title>
    <desc>Created with Sketch.</desc>
    <defs></defs>
    <g id="Icons" stroke="none" stroke-width="1" fill="none" fill-rule="evenodd">
        <g id="Social" transform="translate(-380.000000, -64.000000)" fill="#FFFFFF">
            <g id="icons" transform="translate(20.000000, 20.000000)">
                <path d="M378,48.7067304 L378,46.8262948 L376,46.8262948 L376,48.7067304 L374,48.7067304 L374,50.587166 L376,50.587166 L376,52.4676017 L378,52.4676017 L378,50.587166 L380,50.587166 L380,48.7067304 L378,48.7067304 Z M372.4,48.7067304 C372.454,48.7067304 372.5,49.5266003 372.5,49.9205516 C372.5,53.3467053 370.058,56 366.377,56 C362.852,56 360,53.3156781 360,50.0014103 C360,46.6862023 362.852,44 366.377,44 C368.099,44 369.539,44.5810546 370.65,45.5579409 L368.919,47.1064797 C368.446,46.6777403 367.616,46.1427564 366.377,46.1427564 C364.2,46.1427564 362.423,47.7608713 362.423,49.8509755 C362.423,51.9410797 364.2,53.4830369 366.377,53.4830369 C368.901,53.4830369 369.849,51.5273838 369.994,50.587166 L366,50.587166 L366,48.7067304 L372.4,48.7067304 Z" id="google_plus-[#165]"></path>
            </g>
        </g>
    </g>
</svg>