<?xml version="1.0" encoding="UTF-8"?>
<svg width="20px" height="14px" viewBox="0 0 20 14" version="1.1" xmlns="http://www.w3.org/2000/svg" xmlns:xlink="http://www.w3.org/1999/xlink">
    <!-- Generator: Sketch 46.1 (44463) - http://www.bohemiancoding.com/sketch -->
    <title>youtube [#168]</title>
    <desc>Created with Sketch.</desc>
    <defs></defs>
    <g id="Icons" stroke="none" stroke-width="1" fill="none" fill-rule="evenodd">
        <g id="Social" transform="translate(-260.000000, -63.000000)" fill="#FFFFFF">
            <g id="icons" transform="translate(20.000000, 20.000000)">
                <path d="M247.988432,52.5858841 L247.988432,46.9742458 C249.980638,47.9116796 251.523602,48.8172007 253.348463,49.7935281 C251.843351,50.6282431 249.980638,51.5646796 247.988432,52.5858841 M259.090998,44.182887 C258.747343,43.7301264 258.161634,43.3780901 257.538073,43.2614095 C255.705243,42.9133623 244.270974,42.912365 242.439141,43.2614095 C241.939097,43.3551529 241.493839,43.5815332 241.111335,43.9335695 C239.49964,45.4294745 240.004664,53.4515145 240.393145,54.7509573 C240.556505,55.3134176 240.767679,55.7193064 241.033639,55.9855775 C241.376298,56.3376139 241.845463,56.5799505 242.384355,56.6886529 C243.893451,57.0007984 251.668037,57.1753207 257.506198,56.7355246 C258.044094,56.6417812 258.520231,56.3914664 258.895762,56.0244711 C260.385932,54.5345497 260.28433,46.0617437 259.090998,44.182887" id="youtube-[#168]"></path>
            </g>
        </g>
    </g>
</svg>