<?xml version="1.0" encoding="UTF-8"?>
<svg width="20px" height="20px" viewBox="0 0 20 20" version="1.1" xmlns="http://www.w3.org/2000/svg" xmlns:xlink="http://www.w3.org/1999/xlink">
    <!-- Generator: Sketch 46.1 (44463) - http://www.bohemiancoding.com/sketch -->
    <title>linkedin [#161]</title>
    <desc>Created with Sketch.</desc>
    <defs></defs>
    <g id="Icons" stroke="none" stroke-width="1" fill="none" fill-rule="evenodd">
        <g id="Social" transform="translate(-140.000000, -100.000000)" fill="#FFFFFF">
            <g id="icons" transform="translate(20.000000, 20.000000)">
                <path d="M140,100 L136,100 L136,93.001 C136,91.081 135.153,90.01 133.634,90.01 C131.981,90.01 131,91.126 131,93.001 L131,100 L127,100 L127,87 L131,87 L131,88.462 C131,88.462 132.255,86.26 135.083,86.26 C137.912,86.26 140,87.986 140,91.558 L140,100 L140,100 Z M122.442,84.921 C121.093,84.921 120,83.819 120,82.46 C120,81.102 121.093,80 122.442,80 C123.79,80 124.883,81.102 124.883,82.46 C124.884,83.819 123.79,84.921 122.442,84.921 L122.442,84.921 Z M120,100 L125,100 L125,87 L120,87 L120,100 Z" id="linkedin-[#161]"></path>
            </g>
        </g>
    </g>
</svg>