<?xml version="1.0" encoding="UTF-8"?>
<svg width="12px" height="20px" viewBox="0 0 12 20" version="1.1" xmlns="http://www.w3.org/2000/svg" xmlns:xlink="http://www.w3.org/1999/xlink">
    <!-- Generator: Sketch 46.1 (44463) - http://www.bohemiancoding.com/sketch -->
    <title>tumblr [#181]</title>
    <desc>Created with Sketch.</desc>
    <defs></defs>
    <g id="Icons" stroke="none" stroke-width="1" fill="none" fill-rule="evenodd">
        <g id="Social" transform="translate(-144.000000, -20.000000)" fill="#FFFFFF">
            <g id="icons" transform="translate(20.000000, 20.000000)">
                <path d="M135.00148,15.975 L136,18.827 C135.622944,19.358 133.91209,19.973 132.376708,19.998 C127.82592,20.073 126.088955,16.895 126.088955,14.657 L126.088955,8 L124,8 L124,5.539 C127.169989,4.445 127.931413,1.708 128.110018,0.149 C128.122552,0.042 128.210288,0 128.261467,0 L131.311341,0 L131.311341,5 L135.489251,5 L135.489251,8 L131.311341,8 L131.311341,14.349 C131.311341,15.195 131.646619,16.363 133.318827,16.32 C133.873444,16.307 134.612934,16.152 135.00148,15.975" id="tumblr-[#181]"></path>
            </g>
        </g>
    </g>
</svg>