<?xml version="1.0" encoding="UTF-8"?>
<svg width="20px" height="19px" viewBox="0 0 20 19" version="1.1" xmlns="http://www.w3.org/2000/svg" xmlns:xlink="http://www.w3.org/1999/xlink">
    <!-- Generator: Sketch 46.1 (44463) - http://www.bohemiancoding.com/sketch -->
    <title>snapchat [#136]</title>
    <desc>Created with Sketch.</desc>
    <defs></defs>
    <g id="Icons" stroke="none" stroke-width="1" fill="none" fill-rule="evenodd">
        <g id="Social" transform="translate(-340.000000, -181.000000)" fill="#FFFFFF">
            <g id="icons" transform="translate(20.000000, 20.000000)">
                <path d="M330.125531,180 C328.838531,180 328.277531,179.710609 327.183531,178.927433 C326.193531,178.219134 325.558531,177.829569 323.720531,178.192826 C323.003531,178.334485 323.017531,178.269727 322.863531,177.553333 C322.781531,177.17591 322.722531,176.946219 322.582531,176.923958 C321.089531,176.691232 320.206531,176.347201 320.030531,175.931328 C319.946531,175.73098 320.046531,175.573131 320.200531,175.546823 C322.147531,175.223029 323.721531,173.588882 324.404531,171.979019 C324.406531,171.974972 324.407531,171.970924 324.409531,171.967889 C324.582531,171.613739 324.616531,171.308159 324.512531,171.059242 C324.277531,170.498674 323.520531,170.381299 322.977531,170.162738 C322.603531,170.012983 321.988531,169.697284 322.070531,169.262186 C322.145531,168.863515 322.784531,168.610551 323.126531,168.772448 C323.985531,169.180226 324.673531,169.055768 324.879531,168.863515 C324.869531,168.668227 324.999531,168.456749 324.999531,168.258425 C324.999531,166.879266 324.651531,165.163158 325.085531,164.179634 C326.958531,159.92984 333.206531,159.951089 335.069531,164.177611 C335.503531,165.162146 335.396531,166.879266 335.310531,168.260449 L335.306531,168.32622 C335.294531,168.513413 335.283531,168.690488 335.274531,168.862503 C335.314531,168.899942 335.475531,169.029459 335.804531,169.042613 C336.083531,169.031483 336.405531,168.940416 336.759531,168.772448 C337.176531,168.575136 337.927531,168.877681 337.935531,169.330992 C337.939531,169.54247 337.784531,169.858169 337.021531,170.162738 C336.480531,170.379275 335.721531,170.498674 335.487531,171.059242 C335.382531,171.308159 335.416531,171.613739 335.589531,171.966877 C335.591531,171.970924 335.592531,171.974972 335.594531,171.979019 C335.647531,172.105501 336.932531,175.069227 339.798531,175.546823 C339.919531,175.56706 340.006531,175.67634 339.999531,175.799787 C339.996531,175.844308 339.986531,175.88883 339.967531,175.93234 C339.792531,176.346189 338.910531,176.689208 337.416531,176.921935 C337.276531,176.944195 337.217531,177.173887 337.136531,177.549285 C337.013531,178.119972 337.032531,178.316272 336.278531,178.166517 C334.460531,177.80832 333.771531,178.241395 332.816531,178.924397 C332.112531,179.428301 331.316531,180 330.125531,180" id="snapchat-[#136]"></path>
            </g>
        </g>
    </g>
</svg>