<svg xmlns="http://www.w3.org/2000/svg" xml:space="preserve" viewBox="0 0 469.013 105.053"><path fill="#ae0c33" d="M64.618 104.95s5.357-2.288 8.295-11.148c2.586 5.399 1.911 10.95 1.911 10.95-2.372.532-10.206.198-10.206.198M93.4 54.279s3.268 17.809-8.308 18.416c-11.17.583-16.43-16.214-16.43-16.214s2.7 32.823 18.359 30.66c17.629-2.43 6.38-32.862 6.38-32.862M8.363 100.713c.008-.004.018-.004.018-.004 13.053-2.973 23.058-18.207 25.99-24.322l1.867-3.872 1.123 4.146c.055.224 1.272 4.798 1.272 10.833 0 .67-.017 1.355-.053 2.05 4.503.17 7.717-.743 9.718-2.82 2.87-2.964 3.73-8.582 2.664-17.17-.529-4.108-2.046-10.643-3.393-16.414-.69-2.95-1.339-5.74-1.733-7.713-2.516-12.615.609-20.45 3.67-24.797a20.85 20.85 0 0 1 1.568-1.942c-9.039 3.035-16.613 7.762-24.43 15.57l5.498 6.375 2.248-2.105c2.13 7.92.6 15.212.6 15.212-2.893-4.405-6.304-7.977-6.304-7.977l1.49-2.508-4.955-5.757-.573-.644c-6.092 8.367-8.063 15.211-8.063 15.211l4.32 3.958 2.516 2.279.847-2.427c4.65 8.698.403 16.827.403 16.827-.761-2.963-3.824-7.346-3.824-7.346l1.21-3.988-6.434-5.82C8.935 76.44.001 83.21.001 83.21s9.664-1.742 15.05-3.55c0 0-.148 11.012-6.688 21.053"/><path fill="#ae0c33" d="M61.21 32.28c3.115-2.184 8.415-3.863 13.389-3.482 1.258.093 2.323-.237.967-.954-3.72-1.96-12.39-1.294-15.458.797-4.91 3.349-4.078 9.316-3.966 9.46.98-1.71 2.641-4.124 5.067-5.82m44.749-6.943-15.444.653c.008 1.817-.233 3.661-.824 5.403 1.441 6.304.439 9.723.439 9.723-2.584-6.012-4.549-7.681-4.549-7.681-14.186-6.299-22.155 7.946-21.3 17.136.695 7.552 3.438 17.575 5.574 33.302 1.8 13.233-4.902 18.953-12.61 20.266a7.09 7.09 0 0 0-.507.088c-.044 0-.08 0-.12.01a26.51 26.51 0 0 1-3.98.197c-.045-.014-.103-.014-.148-.014-.157 0-.305-.022-.46-.022-.6-.036-1.192-.1-1.778-.17-5.999-.829-19.429-3.268-33.302-3.604 8.161-4.763 14.545-13.014 18.108-18.856.207 1.62.372 3.596.372 5.77 0 1.084-.036 2.225-.148 3.39l-.134 1.594 1.598.133c6.384.555 10.91-.662 13.869-3.71 3.617-3.77 4.731-10.05 3.505-19.792-.529-4.27-2.083-10.896-3.438-16.738-.676-2.923-1.317-5.698-1.706-7.614-2.296-11.51.448-18.498 3.156-22.33 2.108-2.999 5.032-5.201 8.237-6.258.053-.009.107-.023.165-.031L65.807.004h1.656l-3.54 15.548c.819-.143 1.652-.274 2.493-.403L70.968.815h1.64l-2.983 13.881c4.715-.604 9.827-1.074 15.494-1.49.917.367 1.912 1.428 2.784 2.905l14.863-4.57.55 1.602-14.208 5.51c.112.292.224.596.313.905l15.534-1.93.26 1.666-15.073 3.008c.054.282.099.564.148.847l15.676.505-.008 1.684"/><path fill="#565353" d="M125.686 102.072h-2.29v-81.05h2.29v81.05M151.58 66.613v-17.79h12.59v3.334h-8.802v3.761h8.615v3.334h-8.615v4.027h8.801v3.334H151.58M175.901 62.453V57.89c-.56-.853-1.786-1.466-2.934-1.466-1.92 0-3.254 1.52-3.254 3.76 0 2.214 1.334 3.734 3.254 3.734 1.148 0 2.374-.613 2.934-1.466zm0 4.16V64.96c-1.013 1.28-2.426 1.974-3.974 1.974-3.254 0-5.708-2.455-5.708-6.748 0-4.215 2.428-6.775 5.708-6.775 1.521 0 2.961.667 3.974 1.974v-6.562h3.415v17.79h-3.415M193.983 66.613l-2.722-8.775-2.721 8.775h-3.627l-3.921-12.883h3.521l2.4 8.67 2.828-8.67h3.014l2.828 8.67 2.4-8.67h3.521l-3.921 12.883h-3.6M210.915 63.52v-1.6c-.56-.748-1.627-1.12-2.722-1.12-1.333 0-2.426.692-2.426 1.947 0 1.199 1.093 1.893 2.426 1.893 1.095 0 2.162-.374 2.722-1.12zm0 3.093V65.28c-.88 1.04-2.402 1.654-4.082 1.654-2.053 0-4.481-1.387-4.481-4.268 0-3.014 2.428-4.16 4.481-4.16 1.707 0 3.228.56 4.082 1.573v-1.734c0-1.307-1.122-2.16-2.828-2.16-1.387 0-2.667.506-3.76 1.52l-1.282-2.267c1.575-1.387 3.602-2.027 5.63-2.027 2.933 0 5.626 1.173 5.626 4.88v8.322h-3.386M217.659 66.613V53.73h3.388v1.761c.906-1.147 2.506-2.08 4.106-2.08v3.307a4.46 4.46 0 0 0-.933-.08c-1.12 0-2.613.64-3.173 1.467v8.508h-3.388M236.115 62.453V57.89c-.562-.853-1.788-1.466-2.935-1.466-1.92 0-3.253 1.52-3.253 3.76 0 2.214 1.333 3.734 3.253 3.734 1.147 0 2.373-.613 2.935-1.466zm0 4.16V64.96c-1.015 1.28-2.428 1.974-3.975 1.974-3.255 0-5.708-2.455-5.708-6.748 0-4.215 2.427-6.775 5.708-6.775 1.52 0 2.96.667 3.975 1.974v-6.562h3.413v17.79h-3.413M260.221 54.557c0-1.493-1.148-2.4-2.668-2.4h-3.973v4.801h3.973c1.52 0 2.668-.907 2.668-2.4zm-.374 12.056-3.494-6.321h-2.773v6.321h-3.788v-17.79h8.321c3.708 0 5.975 2.427 5.975 5.734 0 3.148-1.973 4.828-3.893 5.282l4 6.774h-4.348M266.432 64.747c0-1.174.987-2.16 2.16-2.16s2.16.986 2.16 2.16c0 1.173-.987 2.16-2.16 2.16s-2.16-.987-2.16-2.16M296.061 66.613V54.158l-5.014 12.455h-1.654l-5.014-12.455v12.455h-3.787v-17.79h5.308l4.32 10.75 4.321-10.75h5.334v17.79h-3.814M312.007 66.613v-1.626c-.88.987-2.427 1.947-4.535 1.947-2.827 0-4.16-1.548-4.16-4.055V53.73h3.387v7.816c0 1.787.933 2.373 2.373 2.373 1.308 0 2.348-.72 2.935-1.466V53.73h3.388v12.883h-3.388M318.752 66.613V53.73h3.387v1.761c.906-1.147 2.508-2.08 4.108-2.08v3.307c-.24-.053-.56-.08-.934-.08-1.12 0-2.614.64-3.174 1.467v8.508h-3.387M328.35 66.613V53.73h3.389v1.761c.906-1.147 2.506-2.08 4.106-2.08v3.307a4.46 4.46 0 0 0-.933-.08c-1.12 0-2.613.64-3.173 1.467v8.508h-3.388M347.233 60.16c0-2.001-1.2-3.735-3.308-3.735-2.108 0-3.28 1.734-3.28 3.734 0 2.027 1.172 3.76 3.28 3.76 2.108 0 3.308-1.733 3.308-3.76zm-10.109 0c0-3.655 2.56-6.75 6.801-6.75 4.268 0 6.828 3.095 6.828 6.75 0 3.68-2.56 6.774-6.828 6.774-4.241 0-6.801-3.095-6.801-6.775M364.567 66.613l-2.722-8.775-2.721 8.775h-3.627l-3.921-12.883h3.521l2.4 8.67 2.828-8.67h3.014l2.828 8.67 2.4-8.67h3.521l-3.921 12.883h-3.6M150.727 84.4c0-5.469 4.133-9.202 9.468-9.202 3.921 0 6.188 2.133 7.441 4.348l-3.253 1.6c-.747-1.441-2.347-2.587-4.188-2.587-3.227 0-5.575 2.48-5.575 5.841 0 3.36 2.348 5.841 5.575 5.841 1.841 0 3.441-1.121 4.188-2.587l3.253 1.573c-1.28 2.214-3.52 4.375-7.441 4.375-5.335 0-9.468-3.735-9.468-9.202M179.101 86.827c0-2.001-1.2-3.734-3.308-3.734-2.106 0-3.28 1.733-3.28 3.734 0 2.027 1.174 3.76 3.28 3.76 2.108 0 3.308-1.733 3.308-3.76zm-10.109 0c0-3.655 2.561-6.749 6.801-6.749 4.268 0 6.83 3.094 6.83 6.75 0 3.68-2.562 6.774-6.83 6.774-4.24 0-6.801-3.094-6.801-6.775M185.125 93.281v-17.79h3.388v17.79h-3.388M191.872 93.281v-17.79h3.388v17.79h-3.388M204.46 82.773c-2.107 0-3.013 1.574-3.173 2.854h6.346c-.078-1.227-.932-2.854-3.173-2.854zm-6.668 4.054c0-3.734 2.747-6.749 6.668-6.749 3.841 0 6.455 2.882 6.455 7.096v.747h-9.575c.213 1.626 1.52 2.987 3.707 2.987 1.093 0 2.613-.48 3.44-1.28l1.494 2.186c-1.28 1.175-3.306 1.788-5.308 1.788-3.92 0-6.881-2.64-6.881-6.775M222.195 88.72v-4.16c-.562-.854-1.788-1.467-2.908-1.467-1.92 0-3.254 1.333-3.254 3.547 0 2.214 1.334 3.548 3.254 3.548 1.12 0 2.346-.64 2.908-1.467zm-9.096 7.869 1.521-2.454c1.039 1.146 2.4 1.6 4.027 1.6 1.626 0 3.548-.72 3.548-3.255v-1.305c-1.015 1.28-2.402 2.027-3.975 2.027-3.228 0-5.681-2.268-5.681-6.562 0-4.214 2.426-6.562 5.681-6.562 1.547 0 2.933.667 3.975 1.974V80.4h3.413V92.4c0 4.908-3.788 6.109-6.961 6.109-2.215 0-3.922-.507-5.548-1.921M234.807 82.773c-2.107 0-3.015 1.574-3.175 2.854h6.348c-.08-1.227-.933-2.854-3.173-2.854zm-6.668 4.054c0-3.734 2.746-6.749 6.668-6.749 3.841 0 6.454 2.882 6.454 7.096v.747h-9.576c.215 1.626 1.52 2.987 3.708 2.987 1.094 0 2.614-.48 3.44-1.28l1.495 2.186c-1.281 1.175-3.308 1.788-5.308 1.788-3.921 0-6.881-2.64-6.881-6.775M259.82 86.827c0-2.001-1.2-3.734-3.308-3.734-2.107 0-3.28 1.733-3.28 3.734 0 2.027 1.173 3.76 3.28 3.76 2.108 0 3.308-1.733 3.308-3.76zm-10.11 0c0-3.655 2.562-6.749 6.802-6.749 4.268 0 6.83 3.094 6.83 6.75 0 3.68-2.562 6.774-6.83 6.774-4.24 0-6.801-3.094-6.801-6.775M266.592 93.281V83.36h-2.135v-2.961h2.135v-.694c0-2.746 1.76-4.48 4.347-4.48 1.228 0 2.534.32 3.361 1.2l-1.28 2c-.347-.347-.8-.533-1.415-.533-.933 0-1.6.613-1.6 1.813v.694h2.615v2.96h-2.615v9.922h-3.413M280.617 84.4c0-5.469 4.135-9.202 9.47-9.202 3.92 0 6.188 2.133 7.441 4.348l-3.255 1.6c-.746-1.441-2.346-2.587-4.186-2.587-3.228 0-5.576 2.48-5.576 5.841 0 3.36 2.348 5.841 5.576 5.841 1.84 0 3.44-1.121 4.186-2.587l3.255 1.573c-1.28 2.214-3.521 4.375-7.441 4.375-5.335 0-9.47-3.735-9.47-9.202M308.992 86.827c0-2.001-1.2-3.734-3.307-3.734-2.106 0-3.281 1.733-3.281 3.734 0 2.027 1.175 3.76 3.281 3.76 2.107 0 3.307-1.733 3.307-3.76zm-10.108 0c0-3.655 2.56-6.749 6.801-6.749 4.268 0 6.828 3.094 6.828 6.75 0 3.68-2.56 6.774-6.828 6.774-4.241 0-6.801-3.094-6.801-6.775M330.993 93.281v-8.135c0-1.2-.533-2.053-1.92-2.053-1.2 0-2.186.799-2.666 1.493v8.695h-3.415v-8.135c0-1.2-.533-2.053-1.92-2.053-1.173 0-2.161.799-2.668 1.52v8.668h-3.387V80.4h3.387v1.68c.533-.773 2.241-2 4.215-2 1.893 0 3.093.88 3.574 2.347.747-1.173 2.454-2.348 4.428-2.348 2.374 0 3.787 1.255 3.787 3.895v9.308h-3.415M353.713 93.281v-8.135c0-1.2-.533-2.053-1.92-2.053-1.2 0-2.186.799-2.666 1.493v8.695h-3.415v-8.135c0-1.2-.533-2.053-1.92-2.053-1.173 0-2.161.799-2.668 1.52v8.668h-3.387V80.4h3.387v1.68c.533-.773 2.241-2 4.215-2 1.894 0 3.093.88 3.574 2.347.747-1.173 2.454-2.348 4.428-2.348 2.374 0 3.787 1.255 3.787 3.895v9.308h-3.415M369.152 93.281v-1.627c-.88.987-2.427 1.948-4.535 1.948-2.828 0-4.161-1.547-4.161-4.055V80.4h3.388v7.815c0 1.786.933 2.374 2.373 2.374 1.308 0 2.348-.72 2.935-1.468v-8.721h3.388V93.28h-3.388M384.592 93.281v-7.787c0-1.788-.933-2.401-2.373-2.401-1.335 0-2.375.747-2.935 1.52v8.668h-3.387V80.4h3.387v1.68c.827-.986 2.4-2 4.508-2 2.827 0 4.188 1.6 4.188 4.107v9.095h-3.388M391.336 93.281V80.4h3.388V93.28Zm-.347-16.296c0-1.12.934-2 2.027-2 1.121 0 2.028.88 2.028 2s-.907 2.027-2.028 2.027a2.044 2.044 0 0 1-2.027-2.027M397.256 86.827c0-3.948 2.855-6.749 6.828-6.749 2.641 0 4.241 1.147 5.095 2.32l-2.214 2.081c-.614-.906-1.548-1.386-2.721-1.386-2.053 0-3.493 1.493-3.493 3.734 0 2.24 1.44 3.76 3.493 3.76 1.173 0 2.107-.533 2.721-1.386l2.214 2.053c-.854 1.2-2.454 2.348-5.095 2.348-3.973 0-6.828-2.8-6.828-6.775M419.124 90.188v-1.6c-.559-.748-1.627-1.122-2.72-1.122-1.333 0-2.427.695-2.427 1.948 0 1.2 1.094 1.893 2.427 1.893 1.093 0 2.161-.373 2.72-1.12zm0 3.093v-1.333c-.88 1.04-2.4 1.654-4.08 1.654-2.055 0-4.481-1.387-4.481-4.268 0-3.013 2.426-4.16 4.481-4.16 1.707 0 3.227.56 4.08 1.573v-1.734c0-1.307-1.12-2.16-2.827-2.16-1.386 0-2.668.507-3.76 1.52l-1.281-2.267c1.573-1.387 3.601-2.028 5.628-2.028 2.933 0 5.628 1.175 5.628 4.882v8.321h-3.388M426.536 90.08v-6.72h-2.133v-2.961h2.133v-3.521h3.415v3.52h2.613v2.962h-2.613v5.814c0 .8.426 1.414 1.173 1.414.507 0 .987-.187 1.173-.374l.72 2.56c-.506.454-1.413.828-2.826.828-2.374 0-3.655-1.227-3.655-3.521M434.883 93.281V80.4h3.386V93.28Zm-.347-16.296c0-1.12.933-2 2.027-2 1.12 0 2.028.88 2.028 2s-.908 2.027-2.028 2.027a2.044 2.044 0 0 1-2.027-2.027M450.91 86.827c0-2.001-1.2-3.734-3.306-3.734-2.108 0-3.281 1.733-3.281 3.734 0 2.027 1.173 3.76 3.281 3.76 2.107 0 3.307-1.733 3.307-3.76zm-10.107 0c0-3.655 2.56-6.749 6.801-6.749 4.268 0 6.828 3.094 6.828 6.75 0 3.68-2.56 6.774-6.828 6.774-4.241 0-6.801-3.094-6.801-6.775M465.63 93.281v-7.787c0-1.788-.933-2.401-2.373-2.401-1.334 0-2.374.747-2.934 1.52v8.668h-3.388V80.4h3.388v1.68c.826-.986 2.4-2 4.508-2 2.826 0 4.186 1.6 4.186 4.107v9.095h-3.386M157.37 37.38l-1.733-6.556-1.718 6.556h-1.666l-2.545-8.888h1.745l1.732 6.85 1.84-6.85h1.239l1.839 6.85 1.72-6.85h1.745l-2.532 8.888h-1.665M168.21 30.065l-1.598 4.237h3.199zm2.693 7.315-.652-1.705h-4.078l-.653 1.705h-1.773l3.492-8.888h1.945l3.492 8.888h-1.773M175.615 36.128l.866-1.2a3.832 3.832 0 0 0 2.811 1.226c1.28 0 1.785-.626 1.785-1.213 0-1.865-5.182-.706-5.182-3.984 0-1.466 1.292-2.598 3.237-2.598 1.387 0 2.505.44 3.332 1.239l-.893 1.16c-.694-.693-1.639-1.013-2.572-1.013-.919 0-1.506.44-1.506 1.106 0 1.652 5.171.626 5.171 3.944 0 1.48-1.04 2.746-3.439 2.746-1.638 0-2.825-.574-3.61-1.413M192.957 37.38v-3.877h-4.624v3.877h-1.56v-8.888h1.56v3.638h4.624v-3.638h1.559v8.888h-1.559M199.08 37.38v-8.888h1.56v8.888h-1.56M211.397 37.38l-4.637-6.343v6.343h-1.56v-8.888h1.6l4.544 6.17v-6.17h1.559v8.888h-1.506M217.067 32.943c0-2.786 2.092-4.598 4.664-4.598 1.732 0 2.865.827 3.585 1.853l-1.28.72a2.828 2.828 0 0 0-2.305-1.187c-1.759 0-3.066 1.346-3.066 3.212s1.307 3.224 3.066 3.224c.906 0 1.705-.426 2.105-.8v-1.385h-2.652V32.61h4.212v3.33c-.88.974-2.119 1.614-3.665 1.614-2.572 0-4.664-1.826-4.664-4.611M231.745 37.38v-7.515h-2.692v-1.373h6.943v1.373h-2.69v7.515h-1.56M246.743 32.943c0-1.84-1.159-3.212-2.946-3.212-1.798 0-2.945 1.373-2.945 3.212 0 1.825 1.147 3.211 2.945 3.211 1.787 0 2.946-1.386 2.946-3.211zm-7.49 0c0-2.652 1.879-4.598 4.544-4.598 2.666 0 4.546 1.946 4.546 4.598s-1.88 4.598-4.546 4.598c-2.665 0-4.544-1.946-4.544-4.598M258.716 37.38l-4.637-6.343v6.343h-1.559v-8.888h1.6l4.543 6.17v-6.17h1.56v8.888h-1.507M270.307 36.128l.866-1.2a3.832 3.832 0 0 0 2.811 1.226c1.279 0 1.785-.626 1.785-1.213 0-1.865-5.182-.706-5.182-3.984 0-1.466 1.292-2.598 3.237-2.598 1.387 0 2.505.44 3.332 1.239l-.893 1.16c-.694-.693-1.639-1.013-2.572-1.013-.919 0-1.506.44-1.506 1.106 0 1.652 5.171.626 5.171 3.944 0 1.48-1.039 2.746-3.439 2.746-1.638 0-2.824-.574-3.61-1.413M283.452 37.38v-7.515h-2.692v-1.373h6.943v1.373h-2.692v7.515h-1.559M294.357 30.065l-1.598 4.237h3.197zm2.692 7.315-.653-1.705h-4.077l-.654 1.705h-1.772l3.491-8.888h1.947l3.49 8.888h-1.772M303.719 37.38v-7.515h-2.692v-1.373h6.942v1.373h-2.692v7.515h-1.558M311.959 37.38v-8.888h6.09v1.373h-4.53v2.305h4.437v1.372h-4.437v2.466h4.53v1.372h-6.09M328.412 33.876v-5.384h1.573v5.33c0 1.413.786 2.332 2.279 2.332 1.479 0 2.265-.919 2.265-2.331v-5.331h1.572v5.37c0 2.212-1.265 3.679-3.837 3.679-2.585 0-3.852-1.48-3.852-3.665M346.863 37.38l-4.638-6.343v6.343h-1.56v-8.888h1.6l4.544 6.17v-6.17h1.559v8.888h-1.505M352.932 37.38v-8.888h1.559v8.888h-1.559M361.61 37.38l-3.491-8.888h1.773l2.692 7.196 2.69-7.196h1.774l-3.492 8.888h-1.945M370.692 37.38v-8.888h6.09v1.373h-4.531v2.305h4.437v1.372h-4.437v2.466h4.53v1.372h-6.089M386.263 31.277c0-.853-.64-1.412-1.52-1.412h-2.132v2.825h2.132c.88 0 1.52-.56 1.52-1.413zm-.134 6.103-1.973-3.318h-1.545v3.318h-1.559v-8.888h3.904c1.759 0 2.905 1.146 2.905 2.785 0 1.586-1.04 2.439-2.105 2.612l2.172 3.491h-1.799M391.519 36.128l.866-1.2a3.833 3.833 0 0 0 2.812 1.226c1.279 0 1.786-.626 1.786-1.213 0-1.865-5.184-.706-5.184-3.984 0-1.466 1.292-2.598 3.238-2.598 1.386 0 2.504.44 3.331 1.239l-.892 1.16c-.693-.693-1.64-1.013-2.573-1.013-.919 0-1.506.44-1.506 1.106 0 1.652 5.171.626 5.171 3.944 0 1.48-1.039 2.746-3.439 2.746-1.638 0-2.824-.574-3.61-1.413M402.679 37.38v-8.888h1.558v8.888h-1.558M410.917 37.38v-7.515h-2.692v-1.373h6.943v1.373h-2.692v7.515h-1.559M421.677 37.38v-3.69l-3.452-5.198h1.786l2.452 3.81 2.425-3.81h1.787l-3.439 5.197v3.691h-1.559"/></svg>